<!-- SVG representation of a library background -->
<svg width="1920" height="1080" xmlns="http://www.w3.org/2000/svg">
  <defs>
    <pattern id="bookPattern" width="100" height="100" patternUnits="userSpaceOnUse">
      <rect width="20" height="100" x="0" y="0" fill="#8B4513" />
      <rect width="20" height="100" x="22" y="0" fill="#A0522D" />
      <rect width="20" height="100" x="44" y="0" fill="#CD853F" />
      <rect width="20" height="100" x="66" y="0" fill="#D2691E" />
      <rect width="20" height="100" x="88" y="0" fill="#8B4513" />
    </pattern>
  </defs>
  
  <!-- Background -->
  <rect width="100%" height="100%" fill="#F5F5F5" />
  
  <!-- Bookshelves -->
  <rect x="0" y="100" width="100%" height="200" fill="url(#bookPattern)" />
  <rect x="0" y="350" width="100%" height="200" fill="url(#bookPattern)" />
  <rect x="0" y="600" width="100%" height="200" fill="url(#bookPattern)" />
  <rect x="0" y="850" width="100%" height="200" fill="url(#bookPattern)" />
  
  <!-- Shelf dividers -->
  <rect x="0" y="100" width="100%" height="10" fill="#5D4037" />
  <rect x="0" y="300" width="100%" height="10" fill="#5D4037" />
  <rect x="0" y="350" width="100%" height="10" fill="#5D4037" />
  <rect x="0" y="550" width="100%" height="10" fill="#5D4037" />
  <rect x="0" y="600" width="100%" height="10" fill="#5D4037" />
  <rect x="0" y="800" width="100%" height="10" fill="#5D4037" />
  <rect x="0" y="850" width="100%" height="10" fill="#5D4037" />
  <rect x="0" y="1050" width="100%" height="10" fill="#5D4037" />
  
  <!-- Soft overlay for readability -->
  <rect width="100%" height="100%" fill="white" fill-opacity="0.4" />
</svg>
